<svg width="720" height="400" viewBox="0 0 720 400" fill="none" xmlns="http://www.w3.org/2000/svg">
<rect width="720" height="400" rx="15" fill="#221F1F"/>
<path d="M78.1074 54.4062H81.4824V80H78.1074V60.2773L65.5039 80H62.1113V54.4062H65.5039V74.1289L78.1074 54.4062ZM102.664 80H99.4121V71.8789H90.6758V80H87.4062V60.9805H90.6758V69.2246H99.4121V60.9805H102.664V80ZM115.531 77.6973C116.691 77.6973 117.705 77.3457 118.572 76.6426C119.439 75.9395 119.92 75.0605 120.014 74.0059H123.09C123.031 75.0957 122.656 76.1328 121.965 77.1172C121.273 78.1016 120.348 78.8867 119.188 79.4727C118.039 80.0586 116.82 80.3516 115.531 80.3516C112.941 80.3516 110.879 79.4902 109.344 77.7676C107.82 76.0332 107.059 73.666 107.059 70.666V70.1211C107.059 68.2695 107.398 66.623 108.078 65.1816C108.758 63.7402 109.73 62.6211 110.996 61.8242C112.273 61.0273 113.779 60.6289 115.514 60.6289C117.646 60.6289 119.416 61.2676 120.822 62.5449C122.24 63.8223 122.996 65.4805 123.09 67.5195H120.014C119.92 66.2891 119.451 65.2812 118.607 64.4961C117.775 63.6992 116.744 63.3008 115.514 63.3008C113.861 63.3008 112.578 63.8984 111.664 65.0938C110.762 66.2773 110.311 67.9941 110.311 70.2441V70.8594C110.311 73.0508 110.762 74.7383 111.664 75.9219C112.566 77.1055 113.855 77.6973 115.531 77.6973ZM140.879 63.6172H134.498V80H131.246V63.6172H124.988V60.9805H140.879V63.6172ZM160.109 70.7012C160.109 73.5957 159.447 75.9277 158.123 77.6973C156.799 79.4668 155.006 80.3516 152.744 80.3516C150.436 80.3516 148.619 79.6191 147.295 78.1543V87.3125H144.043V60.9805H147.014L147.172 63.0898C148.496 61.4492 150.336 60.6289 152.691 60.6289C154.977 60.6289 156.781 61.4902 158.105 63.2129C159.441 64.9355 160.109 67.332 160.109 70.4023V70.7012ZM156.857 70.332C156.857 68.1875 156.4 66.4941 155.486 65.252C154.572 64.0098 153.318 63.3887 151.725 63.3887C149.756 63.3887 148.279 64.2617 147.295 66.0078V75.0957C148.268 76.8301 149.756 77.6973 151.76 77.6973C153.318 77.6973 154.555 77.082 155.469 75.8516C156.395 74.6094 156.857 72.7695 156.857 70.332ZM170.27 75.2363L174.699 60.9805H178.18L170.533 82.9355C169.35 86.0996 167.469 87.6816 164.891 87.6816L164.275 87.6289L163.062 87.4004V84.7637L163.941 84.834C165.043 84.834 165.898 84.6113 166.508 84.166C167.129 83.7207 167.639 82.9062 168.037 81.7227L168.758 79.7891L161.973 60.9805H165.523L170.27 75.2363ZM187.021 71.8965H184.648V80H181.379V60.9805H184.648V69.0312H186.775L193.174 60.9805H197.111L189.588 70.1211L197.744 80H193.613L187.021 71.8965ZM200.82 60.9805H204.09V77.3457H212.844V60.9805H216.096V77.3457H218.363L218.047 85.6426H215.129V80H200.82V60.9805ZM234.184 60.9805H237.436V80H234.184V66.1309L225.412 80H222.16V60.9805H225.412V74.8672L234.184 60.9805ZM257.193 60.9805V80H253.924V72.5996H249.02L244.537 80H241.021L245.803 72.1074C244.584 71.6621 243.646 70.9766 242.99 70.0508C242.346 69.1133 242.023 68.0234 242.023 66.7812C242.023 65.0469 242.674 63.6523 243.975 62.5977C245.275 61.5312 247.016 60.9922 249.195 60.9805H257.193ZM245.293 66.8164C245.293 67.7422 245.609 68.4922 246.242 69.0664C246.875 69.6289 247.713 69.916 248.756 69.9277H253.924V63.6172H249.248C248.041 63.6172 247.08 63.916 246.365 64.5137C245.65 65.0996 245.293 65.8672 245.293 66.8164Z" fill="#F1E8E8"/>
<path d="M96.0117 163H93.75V147.789H85.3359V163H83.0859V145.938H96.0117V163ZM105.035 163.234C103.316 163.234 101.918 162.672 100.84 161.547C99.7617 160.414 99.2227 158.902 99.2227 157.012V156.613C99.2227 155.355 99.4609 154.234 99.9375 153.25C100.422 152.258 101.094 151.484 101.953 150.93C102.82 150.367 103.758 150.086 104.766 150.086C106.414 150.086 107.695 150.629 108.609 151.715C109.523 152.801 109.98 154.355 109.98 156.379V157.281H101.391C101.422 158.531 101.785 159.543 102.48 160.316C103.184 161.082 104.074 161.465 105.152 161.465C105.918 161.465 106.566 161.309 107.098 160.996C107.629 160.684 108.094 160.27 108.492 159.754L109.816 160.785C108.754 162.418 107.16 163.234 105.035 163.234ZM104.766 151.867C103.891 151.867 103.156 152.188 102.562 152.828C101.969 153.461 101.602 154.352 101.461 155.5H107.812V155.336C107.75 154.234 107.453 153.383 106.922 152.781C106.391 152.172 105.672 151.867 104.766 151.867ZM123.211 156.801C123.211 158.73 122.77 160.285 121.887 161.465C121.004 162.645 119.809 163.234 118.301 163.234C116.762 163.234 115.551 162.746 114.668 161.77V167.875H112.5V150.32H114.48L114.586 151.727C115.469 150.633 116.695 150.086 118.266 150.086C119.789 150.086 120.992 150.66 121.875 151.809C122.766 152.957 123.211 154.555 123.211 156.602V156.801ZM121.043 156.555C121.043 155.125 120.738 153.996 120.129 153.168C119.52 152.34 118.684 151.926 117.621 151.926C116.309 151.926 115.324 152.508 114.668 153.672V159.73C115.316 160.887 116.309 161.465 117.645 161.465C118.684 161.465 119.508 161.055 120.117 160.234C120.734 159.406 121.043 158.18 121.043 156.555ZM131.238 163.234C129.52 163.234 128.121 162.672 127.043 161.547C125.965 160.414 125.426 158.902 125.426 157.012V156.613C125.426 155.355 125.664 154.234 126.141 153.25C126.625 152.258 127.297 151.484 128.156 150.93C129.023 150.367 129.961 150.086 130.969 150.086C132.617 150.086 133.898 150.629 134.812 151.715C135.727 152.801 136.184 154.355 136.184 156.379V157.281H127.594C127.625 158.531 127.988 159.543 128.684 160.316C129.387 161.082 130.277 161.465 131.355 161.465C132.121 161.465 132.77 161.309 133.301 160.996C133.832 160.684 134.297 160.27 134.695 159.754L136.02 160.785C134.957 162.418 133.363 163.234 131.238 163.234ZM130.969 151.867C130.094 151.867 129.359 152.188 128.766 152.828C128.172 153.461 127.805 154.352 127.664 155.5H134.016V155.336C133.953 154.234 133.656 153.383 133.125 152.781C132.594 152.172 131.875 151.867 130.969 151.867ZM146.906 150.32H149.074V163H146.906V153.754L141.059 163H138.891V150.32H141.059V159.578L146.906 150.32ZM147.492 145.703C147.492 146.648 147.168 147.41 146.52 147.988C145.879 148.559 145.035 148.844 143.988 148.844C142.941 148.844 142.094 148.555 141.445 147.977C140.797 147.398 140.473 146.641 140.473 145.703H142.242C142.242 146.25 142.391 146.68 142.688 146.992C142.984 147.297 143.418 147.449 143.988 147.449C144.535 147.449 144.961 147.297 145.266 146.992C145.578 146.688 145.734 146.258 145.734 145.703H147.492ZM161.977 152.078H157.723V163H155.555V152.078H151.383V150.32H161.977V152.078ZM172.289 150.32H174.457V163H172.289V153.754L166.441 163H164.273V150.32H166.441V159.578L172.289 150.32ZM194.25 163H192.082V157.586H186.258V163H184.078V150.32H186.258V155.816H192.082V150.32H194.25V163ZM205.57 163C205.445 162.75 205.344 162.305 205.266 161.664C204.258 162.711 203.055 163.234 201.656 163.234C200.406 163.234 199.379 162.883 198.574 162.18C197.777 161.469 197.379 160.57 197.379 159.484C197.379 158.164 197.879 157.141 198.879 156.414C199.887 155.68 201.301 155.312 203.121 155.312H205.23V154.316C205.23 153.559 205.004 152.957 204.551 152.512C204.098 152.059 203.43 151.832 202.547 151.832C201.773 151.832 201.125 152.027 200.602 152.418C200.078 152.809 199.816 153.281 199.816 153.836H197.637C197.637 153.203 197.859 152.594 198.305 152.008C198.758 151.414 199.367 150.945 200.133 150.602C200.906 150.258 201.754 150.086 202.676 150.086C204.137 150.086 205.281 150.453 206.109 151.188C206.938 151.914 207.367 152.918 207.398 154.199V160.035C207.398 161.199 207.547 162.125 207.844 162.812V163H205.57ZM201.973 161.348C202.652 161.348 203.297 161.172 203.906 160.82C204.516 160.469 204.957 160.012 205.23 159.449V156.848H203.531C200.875 156.848 199.547 157.625 199.547 159.18C199.547 159.859 199.773 160.391 200.227 160.773C200.68 161.156 201.262 161.348 201.973 161.348ZM221.836 161.465C222.609 161.465 223.285 161.23 223.863 160.762C224.441 160.293 224.762 159.707 224.824 159.004H226.875C226.836 159.73 226.586 160.422 226.125 161.078C225.664 161.734 225.047 162.258 224.273 162.648C223.508 163.039 222.695 163.234 221.836 163.234C220.109 163.234 218.734 162.66 217.711 161.512C216.695 160.355 216.188 158.777 216.188 156.777V156.414C216.188 155.18 216.414 154.082 216.867 153.121C217.32 152.16 217.969 151.414 218.812 150.883C219.664 150.352 220.668 150.086 221.824 150.086C223.246 150.086 224.426 150.512 225.363 151.363C226.309 152.215 226.812 153.32 226.875 154.68H224.824C224.762 153.859 224.449 153.188 223.887 152.664C223.332 152.133 222.645 151.867 221.824 151.867C220.723 151.867 219.867 152.266 219.258 153.062C218.656 153.852 218.355 154.996 218.355 156.496V156.906C218.355 158.367 218.656 159.492 219.258 160.281C219.859 161.07 220.719 161.465 221.836 161.465ZM237.141 163C237.016 162.75 236.914 162.305 236.836 161.664C235.828 162.711 234.625 163.234 233.227 163.234C231.977 163.234 230.949 162.883 230.145 162.18C229.348 161.469 228.949 160.57 228.949 159.484C228.949 158.164 229.449 157.141 230.449 156.414C231.457 155.68 232.871 155.312 234.691 155.312H236.801V154.316C236.801 153.559 236.574 152.957 236.121 152.512C235.668 152.059 235 151.832 234.117 151.832C233.344 151.832 232.695 152.027 232.172 152.418C231.648 152.809 231.387 153.281 231.387 153.836H229.207C229.207 153.203 229.43 152.594 229.875 152.008C230.328 151.414 230.938 150.945 231.703 150.602C232.477 150.258 233.324 150.086 234.246 150.086C235.707 150.086 236.852 150.453 237.68 151.188C238.508 151.914 238.938 152.918 238.969 154.199V160.035C238.969 161.199 239.117 162.125 239.414 162.812V163H237.141ZM233.543 161.348C234.223 161.348 234.867 161.172 235.477 160.82C236.086 160.469 236.527 160.012 236.801 159.449V156.848H235.102C232.445 156.848 231.117 157.625 231.117 159.18C231.117 159.859 231.344 160.391 231.797 160.773C232.25 161.156 232.832 161.348 233.543 161.348ZM250.57 150.32H252.738V163H250.57V153.754L244.723 163H242.555V150.32H244.723V159.578L250.57 150.32ZM251.156 145.703C251.156 146.648 250.832 147.41 250.184 147.988C249.543 148.559 248.699 148.844 247.652 148.844C246.605 148.844 245.758 148.555 245.109 147.977C244.461 147.398 244.137 146.641 244.137 145.703H245.906C245.906 146.25 246.055 146.68 246.352 146.992C246.648 147.297 247.082 147.449 247.652 147.449C248.199 147.449 248.625 147.297 248.93 146.992C249.242 146.688 249.398 146.258 249.398 145.703H251.156ZM265.641 152.078H261.387V163H259.219V152.078H255.047V150.32H265.641V152.078ZM273.129 156.543C273.129 155.301 273.371 154.184 273.855 153.191C274.348 152.199 275.027 151.434 275.895 150.895C276.77 150.355 277.766 150.086 278.883 150.086C280.609 150.086 282.004 150.684 283.066 151.879C284.137 153.074 284.672 154.664 284.672 156.648V156.801C284.672 158.035 284.434 159.145 283.957 160.129C283.488 161.105 282.812 161.867 281.93 162.414C281.055 162.961 280.047 163.234 278.906 163.234C277.188 163.234 275.793 162.637 274.723 161.441C273.66 160.246 273.129 158.664 273.129 156.695V156.543ZM275.309 156.801C275.309 158.207 275.633 159.336 276.281 160.188C276.938 161.039 277.812 161.465 278.906 161.465C280.008 161.465 280.883 161.035 281.531 160.176C282.18 159.309 282.504 158.098 282.504 156.543C282.504 155.152 282.172 154.027 281.508 153.168C280.852 152.301 279.977 151.867 278.883 151.867C277.812 151.867 276.949 152.293 276.293 153.145C275.637 153.996 275.309 155.215 275.309 156.801ZM288.457 163V151.996H286.453V150.32H288.457V149.02C288.457 147.66 288.82 146.609 289.547 145.867C290.273 145.125 291.301 144.754 292.629 144.754C293.129 144.754 293.625 144.82 294.117 144.953L294 146.711C293.633 146.641 293.242 146.605 292.828 146.605C292.125 146.605 291.582 146.812 291.199 147.227C290.816 147.633 290.625 148.219 290.625 148.984V150.32H293.332V151.996H290.625V163H288.457ZM294.926 156.555C294.926 154.609 295.387 153.047 296.309 151.867C297.23 150.68 298.438 150.086 299.93 150.086C301.414 150.086 302.59 150.594 303.457 151.609V145H305.625V163H303.633L303.527 161.641C302.66 162.703 301.453 163.234 299.906 163.234C298.438 163.234 297.238 162.633 296.309 161.43C295.387 160.227 294.926 158.656 294.926 156.719V156.555ZM297.094 156.801C297.094 158.238 297.391 159.363 297.984 160.176C298.578 160.988 299.398 161.395 300.445 161.395C301.82 161.395 302.824 160.777 303.457 159.543V153.719C302.809 152.523 301.812 151.926 300.469 151.926C299.406 151.926 298.578 152.336 297.984 153.156C297.391 153.977 297.094 155.191 297.094 156.801ZM309.047 161.863C309.047 161.488 309.156 161.176 309.375 160.926C309.602 160.676 309.938 160.551 310.383 160.551C310.828 160.551 311.164 160.676 311.391 160.926C311.625 161.176 311.742 161.488 311.742 161.863C311.742 162.223 311.625 162.523 311.391 162.766C311.164 163.008 310.828 163.129 310.383 163.129C309.938 163.129 309.602 163.008 309.375 162.766C309.156 162.523 309.047 162.223 309.047 161.863ZM319.477 159.824L322.43 150.32H324.75L319.652 164.957C318.863 167.066 317.609 168.121 315.891 168.121L315.48 168.086L314.672 167.934V166.176L315.258 166.223C315.992 166.223 316.562 166.074 316.969 165.777C317.383 165.48 317.723 164.938 317.988 164.148L318.469 162.859L313.945 150.32H316.312L319.477 159.824ZM334.336 163C334.211 162.75 334.109 162.305 334.031 161.664C333.023 162.711 331.82 163.234 330.422 163.234C329.172 163.234 328.145 162.883 327.34 162.18C326.543 161.469 326.145 160.57 326.145 159.484C326.145 158.164 326.645 157.141 327.645 156.414C328.652 155.68 330.066 155.312 331.887 155.312H333.996V154.316C333.996 153.559 333.77 152.957 333.316 152.512C332.863 152.059 332.195 151.832 331.312 151.832C330.539 151.832 329.891 152.027 329.367 152.418C328.844 152.809 328.582 153.281 328.582 153.836H326.402C326.402 153.203 326.625 152.594 327.07 152.008C327.523 151.414 328.133 150.945 328.898 150.602C329.672 150.258 330.52 150.086 331.441 150.086C332.902 150.086 334.047 150.453 334.875 151.188C335.703 151.914 336.133 152.918 336.164 154.199V160.035C336.164 161.199 336.312 162.125 336.609 162.812V163H334.336ZM330.738 161.348C331.418 161.348 332.062 161.172 332.672 160.82C333.281 160.469 333.723 160.012 333.996 159.449V156.848H332.297C329.641 156.848 328.312 157.625 328.312 159.18C328.312 159.859 328.539 160.391 328.992 160.773C329.445 161.156 330.027 161.348 330.738 161.348ZM341.613 150.32L341.684 151.914C342.652 150.695 343.918 150.086 345.48 150.086C348.16 150.086 349.512 151.598 349.535 154.621V163H347.367V154.609C347.359 153.695 347.148 153.02 346.734 152.582C346.328 152.145 345.691 151.926 344.824 151.926C344.121 151.926 343.504 152.113 342.973 152.488C342.441 152.863 342.027 153.355 341.73 153.965V163H339.562V150.32H341.613ZM352.277 156.555C352.277 154.609 352.738 153.047 353.66 151.867C354.582 150.68 355.789 150.086 357.281 150.086C358.766 150.086 359.941 150.594 360.809 151.609V145H362.977V163H360.984L360.879 161.641C360.012 162.703 358.805 163.234 357.258 163.234C355.789 163.234 354.59 162.633 353.66 161.43C352.738 160.227 352.277 158.656 352.277 156.719V156.555ZM354.445 156.801C354.445 158.238 354.742 159.363 355.336 160.176C355.93 160.988 356.75 161.395 357.797 161.395C359.172 161.395 360.176 160.777 360.809 159.543V153.719C360.16 152.523 359.164 151.926 357.82 151.926C356.758 151.926 355.93 152.336 355.336 153.156C354.742 153.977 354.445 155.191 354.445 156.801ZM371.613 163.234C369.895 163.234 368.496 162.672 367.418 161.547C366.34 160.414 365.801 158.902 365.801 157.012V156.613C365.801 155.355 366.039 154.234 366.516 153.25C367 152.258 367.672 151.484 368.531 150.93C369.398 150.367 370.336 150.086 371.344 150.086C372.992 150.086 374.273 150.629 375.188 151.715C376.102 152.801 376.559 154.355 376.559 156.379V157.281H367.969C368 158.531 368.363 159.543 369.059 160.316C369.762 161.082 370.652 161.465 371.73 161.465C372.496 161.465 373.145 161.309 373.676 160.996C374.207 160.684 374.672 160.27 375.07 159.754L376.395 160.785C375.332 162.418 373.738 163.234 371.613 163.234ZM371.344 151.867C370.469 151.867 369.734 152.188 369.141 152.828C368.547 153.461 368.18 154.352 368.039 155.5H374.391V155.336C374.328 154.234 374.031 153.383 373.5 152.781C372.969 152.172 372.25 151.867 371.344 151.867ZM383.332 154.949L386.145 150.32H388.676L384.527 156.59L388.805 163H386.297L383.367 158.254L380.438 163H377.918L382.195 156.59L378.047 150.32H380.555L383.332 154.949ZM391.031 161.863C391.031 161.488 391.141 161.176 391.359 160.926C391.586 160.676 391.922 160.551 392.367 160.551C392.812 160.551 393.148 160.676 393.375 160.926C393.609 161.176 393.727 161.488 393.727 161.863C393.727 162.223 393.609 162.523 393.375 162.766C393.148 163.008 392.812 163.129 392.367 163.129C391.922 163.129 391.586 163.008 391.359 162.766C391.141 162.523 391.031 162.223 391.031 161.863ZM403.441 152.266C403.113 152.211 402.758 152.184 402.375 152.184C400.953 152.184 399.988 152.789 399.48 154V163H397.312V150.32H399.422L399.457 151.785C400.168 150.652 401.176 150.086 402.48 150.086C402.902 150.086 403.223 150.141 403.441 150.25V152.266ZM413.273 161.746C412.43 162.738 411.191 163.234 409.559 163.234C408.207 163.234 407.176 162.844 406.465 162.062C405.762 161.273 405.406 160.109 405.398 158.57V150.32H407.566V158.512C407.566 160.434 408.348 161.395 409.91 161.395C411.566 161.395 412.668 160.777 413.215 159.543V150.32H415.383V163H413.32L413.273 161.746Z" fill="#F1E8E8"/>
<path d="M82.9805 205V187.938H88.5586C90.4102 187.938 91.8008 188.32 92.7305 189.086C93.668 189.852 94.1367 190.984 94.1367 192.484C94.1367 193.281 93.9102 193.988 93.457 194.605C93.0039 195.215 92.3867 195.688 91.6055 196.023C92.5273 196.281 93.2539 196.773 93.7852 197.5C94.3242 198.219 94.5938 199.078 94.5938 200.078C94.5938 201.609 94.0977 202.812 93.1055 203.688C92.1133 204.562 90.7109 205 88.8984 205H82.9805ZM85.2305 197.02V203.16H88.9453C89.9922 203.16 90.8164 202.891 91.418 202.352C92.0273 201.805 92.332 201.055 92.332 200.102C92.332 198.047 91.2148 197.02 88.9805 197.02H85.2305ZM85.2305 195.215H88.6289C89.6133 195.215 90.3984 194.969 90.9844 194.477C91.5781 193.984 91.875 193.316 91.875 192.473C91.875 191.535 91.6016 190.855 91.0547 190.434C90.5078 190.004 89.6758 189.789 88.5586 189.789H85.2305V195.215ZM97.0195 198.543C97.0195 197.301 97.2617 196.184 97.7461 195.191C98.2383 194.199 98.918 193.434 99.7852 192.895C100.66 192.355 101.656 192.086 102.773 192.086C104.5 192.086 105.895 192.684 106.957 193.879C108.027 195.074 108.562 196.664 108.562 198.648V198.801C108.562 200.035 108.324 201.145 107.848 202.129C107.379 203.105 106.703 203.867 105.82 204.414C104.945 204.961 103.938 205.234 102.797 205.234C101.078 205.234 99.6836 204.637 98.6133 203.441C97.5508 202.246 97.0195 200.664 97.0195 198.695V198.543ZM99.1992 198.801C99.1992 200.207 99.5234 201.336 100.172 202.188C100.828 203.039 101.703 203.465 102.797 203.465C103.898 203.465 104.773 203.035 105.422 202.176C106.07 201.309 106.395 200.098 106.395 198.543C106.395 197.152 106.062 196.027 105.398 195.168C104.742 194.301 103.867 193.867 102.773 193.867C101.703 193.867 100.84 194.293 100.184 195.145C99.5273 195.996 99.1992 197.215 99.1992 198.801ZM119.484 192.32H121.652V205H119.484V195.754L113.637 205H111.469V192.32H113.637V201.578L119.484 192.32ZM120.07 187.703C120.07 188.648 119.746 189.41 119.098 189.988C118.457 190.559 117.613 190.844 116.566 190.844C115.52 190.844 114.672 190.555 114.023 189.977C113.375 189.398 113.051 188.641 113.051 187.703H114.82C114.82 188.25 114.969 188.68 115.266 188.992C115.562 189.297 115.996 189.449 116.566 189.449C117.113 189.449 117.539 189.297 117.844 188.992C118.156 188.688 118.312 188.258 118.312 187.703H120.07ZM134.555 194.078H130.301V205H128.133V194.078H123.961V192.32H134.555V194.078ZM144.867 192.32H147.035V205H144.867V195.754L139.02 205H136.852V192.32H139.02V201.578L144.867 192.32ZM164.672 192.32H166.84V205H164.672V195.754L158.824 205H156.656V192.32H158.824V201.578L164.672 192.32ZM180.715 192.32V205H178.535V194.113H174.223L173.965 198.859C173.824 201.039 173.457 202.598 172.863 203.535C172.277 204.473 171.344 204.961 170.062 205H169.195V203.09L169.816 203.043C170.52 202.965 171.023 202.559 171.328 201.824C171.633 201.09 171.828 199.73 171.914 197.746L172.148 192.32H180.715ZM192.398 192.32H194.566V205H192.398V195.754L186.551 205H184.383V192.32H186.551V201.578L192.398 192.32ZM210.973 195.789C210.973 195.195 210.746 194.727 210.293 194.383C209.84 194.031 209.219 193.855 208.43 193.855C207.664 193.855 207.023 194.055 206.508 194.453C206 194.852 205.746 195.32 205.746 195.859H203.59C203.59 194.758 204.051 193.855 204.973 193.152C205.895 192.449 207.047 192.098 208.43 192.098C209.914 192.098 211.07 192.418 211.898 193.059C212.727 193.691 213.141 194.598 213.141 195.777C213.141 196.348 212.969 196.871 212.625 197.348C212.281 197.824 211.793 198.203 211.16 198.484C212.637 198.984 213.375 199.969 213.375 201.438C213.375 202.602 212.926 203.523 212.027 204.203C211.129 204.883 209.93 205.223 208.43 205.223C206.969 205.223 205.762 204.867 204.809 204.156C203.863 203.438 203.391 202.469 203.391 201.25H205.547C205.547 201.867 205.82 202.398 206.367 202.844C206.922 203.281 207.609 203.5 208.43 203.5C209.258 203.5 209.926 203.309 210.434 202.926C210.941 202.543 211.195 202.047 211.195 201.438C211.195 200.727 210.98 200.219 210.551 199.914C210.129 199.602 209.469 199.445 208.57 199.445H206.402V197.617H208.758C210.234 197.578 210.973 196.969 210.973 195.789ZM224.016 205C223.891 204.75 223.789 204.305 223.711 203.664C222.703 204.711 221.5 205.234 220.102 205.234C218.852 205.234 217.824 204.883 217.02 204.18C216.223 203.469 215.824 202.57 215.824 201.484C215.824 200.164 216.324 199.141 217.324 198.414C218.332 197.68 219.746 197.312 221.566 197.312H223.676V196.316C223.676 195.559 223.449 194.957 222.996 194.512C222.543 194.059 221.875 193.832 220.992 193.832C220.219 193.832 219.57 194.027 219.047 194.418C218.523 194.809 218.262 195.281 218.262 195.836H216.082C216.082 195.203 216.305 194.594 216.75 194.008C217.203 193.414 217.812 192.945 218.578 192.602C219.352 192.258 220.199 192.086 221.121 192.086C222.582 192.086 223.727 192.453 224.555 193.188C225.383 193.914 225.812 194.918 225.844 196.199V202.035C225.844 203.199 225.992 204.125 226.289 204.812V205H224.016ZM220.418 203.348C221.098 203.348 221.742 203.172 222.352 202.82C222.961 202.469 223.402 202.012 223.676 201.449V198.848H221.977C219.32 198.848 217.992 199.625 217.992 201.18C217.992 201.859 218.219 202.391 218.672 202.773C219.125 203.156 219.707 203.348 220.418 203.348ZM239.953 198.801C239.953 200.73 239.512 202.285 238.629 203.465C237.746 204.645 236.551 205.234 235.043 205.234C233.504 205.234 232.293 204.746 231.41 203.77V209.875H229.242V192.32H231.223L231.328 193.727C232.211 192.633 233.438 192.086 235.008 192.086C236.531 192.086 237.734 192.66 238.617 193.809C239.508 194.957 239.953 196.555 239.953 198.602V198.801ZM237.785 198.555C237.785 197.125 237.48 195.996 236.871 195.168C236.262 194.34 235.426 193.926 234.363 193.926C233.051 193.926 232.066 194.508 231.41 195.672V201.73C232.059 202.887 233.051 203.465 234.387 203.465C235.426 203.465 236.25 203.055 236.859 202.234C237.477 201.406 237.785 200.18 237.785 198.555ZM247.98 205.234C246.262 205.234 244.863 204.672 243.785 203.547C242.707 202.414 242.168 200.902 242.168 199.012V198.613C242.168 197.355 242.406 196.234 242.883 195.25C243.367 194.258 244.039 193.484 244.898 192.93C245.766 192.367 246.703 192.086 247.711 192.086C249.359 192.086 250.641 192.629 251.555 193.715C252.469 194.801 252.926 196.355 252.926 198.379V199.281H244.336C244.367 200.531 244.73 201.543 245.426 202.316C246.129 203.082 247.02 203.465 248.098 203.465C248.863 203.465 249.512 203.309 250.043 202.996C250.574 202.684 251.039 202.27 251.438 201.754L252.762 202.785C251.699 204.418 250.105 205.234 247.98 205.234ZM247.711 193.867C246.836 193.867 246.102 194.188 245.508 194.828C244.914 195.461 244.547 196.352 244.406 197.5H250.758V197.336C250.695 196.234 250.398 195.383 249.867 194.781C249.336 194.172 248.617 193.867 247.711 193.867ZM263.637 194.113H257.789V205H255.609V192.32H263.637V194.113ZM273.727 192.32H275.895V205H273.727V195.754L267.879 205H265.711V192.32H267.879V201.578L273.727 192.32ZM284.461 203.465C285.234 203.465 285.91 203.23 286.488 202.762C287.066 202.293 287.387 201.707 287.449 201.004H289.5C289.461 201.73 289.211 202.422 288.75 203.078C288.289 203.734 287.672 204.258 286.898 204.648C286.133 205.039 285.32 205.234 284.461 205.234C282.734 205.234 281.359 204.66 280.336 203.512C279.32 202.355 278.812 200.777 278.812 198.777V198.414C278.812 197.18 279.039 196.082 279.492 195.121C279.945 194.16 280.594 193.414 281.438 192.883C282.289 192.352 283.293 192.086 284.449 192.086C285.871 192.086 287.051 192.512 287.988 193.363C288.934 194.215 289.438 195.32 289.5 196.68H287.449C287.387 195.859 287.074 195.188 286.512 194.664C285.957 194.133 285.27 193.867 284.449 193.867C283.348 193.867 282.492 194.266 281.883 195.062C281.281 195.852 280.98 196.996 280.98 198.496V198.906C280.98 200.367 281.281 201.492 281.883 202.281C282.484 203.07 283.344 203.465 284.461 203.465ZM301.359 194.078H297.105V205H294.938V194.078H290.766V192.32H301.359V194.078ZM314.18 198.801C314.18 200.73 313.738 202.285 312.855 203.465C311.973 204.645 310.777 205.234 309.27 205.234C307.73 205.234 306.52 204.746 305.637 203.77V209.875H303.469V192.32H305.449L305.555 193.727C306.438 192.633 307.664 192.086 309.234 192.086C310.758 192.086 311.961 192.66 312.844 193.809C313.734 194.957 314.18 196.555 314.18 198.602V198.801ZM312.012 198.555C312.012 197.125 311.707 195.996 311.098 195.168C310.488 194.34 309.652 193.926 308.59 193.926C307.277 193.926 306.293 194.508 305.637 195.672V201.73C306.285 202.887 307.277 203.465 308.613 203.465C309.652 203.465 310.477 203.055 311.086 202.234C311.703 201.406 312.012 200.18 312.012 198.555ZM325.148 192.32H327.316V205H325.148V195.754L319.301 205H317.133V192.32H319.301V201.578L325.148 192.32ZM341.508 198.801C341.508 200.73 341.066 202.285 340.184 203.465C339.301 204.645 338.105 205.234 336.598 205.234C335.059 205.234 333.848 204.746 332.965 203.77V209.875H330.797V192.32H332.777L332.883 193.727C333.766 192.633 334.992 192.086 336.562 192.086C338.086 192.086 339.289 192.66 340.172 193.809C341.062 194.957 341.508 196.555 341.508 198.602V198.801ZM339.34 198.555C339.34 197.125 339.035 195.996 338.426 195.168C337.816 194.34 336.98 193.926 335.918 193.926C334.605 193.926 333.621 194.508 332.965 195.672V201.73C333.613 202.887 334.605 203.465 335.941 203.465C336.98 203.465 337.805 203.055 338.414 202.234C339.031 201.406 339.34 200.18 339.34 198.555ZM343.699 198.543C343.699 197.301 343.941 196.184 344.426 195.191C344.918 194.199 345.598 193.434 346.465 192.895C347.34 192.355 348.336 192.086 349.453 192.086C351.18 192.086 352.574 192.684 353.637 193.879C354.707 195.074 355.242 196.664 355.242 198.648V198.801C355.242 200.035 355.004 201.145 354.527 202.129C354.059 203.105 353.383 203.867 352.5 204.414C351.625 204.961 350.617 205.234 349.477 205.234C347.758 205.234 346.363 204.637 345.293 203.441C344.23 202.246 343.699 200.664 343.699 198.695V198.543ZM345.879 198.801C345.879 200.207 346.203 201.336 346.852 202.188C347.508 203.039 348.383 203.465 349.477 203.465C350.578 203.465 351.453 203.035 352.102 202.176C352.75 201.309 353.074 200.098 353.074 198.543C353.074 197.152 352.742 196.027 352.078 195.168C351.422 194.301 350.547 193.867 349.453 193.867C348.383 193.867 347.52 194.293 346.863 195.145C346.207 195.996 345.879 197.215 345.879 198.801ZM358.16 205V192.32H363.105C364.793 192.32 366.086 192.617 366.984 193.211C367.891 193.797 368.344 194.66 368.344 195.801C368.344 196.387 368.168 196.918 367.816 197.395C367.465 197.863 366.945 198.223 366.258 198.473C367.023 198.652 367.637 199.004 368.098 199.527C368.566 200.051 368.801 200.676 368.801 201.402C368.801 202.566 368.371 203.457 367.512 204.074C366.66 204.691 365.453 205 363.891 205H358.16ZM360.328 199.434V203.254H363.914C364.82 203.254 365.496 203.086 365.941 202.75C366.395 202.414 366.621 201.941 366.621 201.332C366.621 200.066 365.691 199.434 363.832 199.434H360.328ZM360.328 197.699H363.129C365.16 197.699 366.176 197.105 366.176 195.918C366.176 194.73 365.215 194.117 363.293 194.078H360.328V197.699ZM379.5 205C379.375 204.75 379.273 204.305 379.195 203.664C378.188 204.711 376.984 205.234 375.586 205.234C374.336 205.234 373.309 204.883 372.504 204.18C371.707 203.469 371.309 202.57 371.309 201.484C371.309 200.164 371.809 199.141 372.809 198.414C373.816 197.68 375.23 197.312 377.051 197.312H379.16V196.316C379.16 195.559 378.934 194.957 378.48 194.512C378.027 194.059 377.359 193.832 376.477 193.832C375.703 193.832 375.055 194.027 374.531 194.418C374.008 194.809 373.746 195.281 373.746 195.836H371.566C371.566 195.203 371.789 194.594 372.234 194.008C372.688 193.414 373.297 192.945 374.062 192.602C374.836 192.258 375.684 192.086 376.605 192.086C378.066 192.086 379.211 192.453 380.039 193.188C380.867 193.914 381.297 194.918 381.328 196.199V202.035C381.328 203.199 381.477 204.125 381.773 204.812V205H379.5ZM375.902 203.348C376.582 203.348 377.227 203.172 377.836 202.82C378.445 202.469 378.887 202.012 379.16 201.449V198.848H377.461C374.805 198.848 373.477 199.625 373.477 201.18C373.477 201.859 373.703 202.391 374.156 202.773C374.609 203.156 375.191 203.348 375.902 203.348ZM393.961 194.078H389.707V205H387.539V194.078H383.367V192.32H393.961V194.078ZM398.438 196.691H401.73C403.168 196.707 404.305 197.082 405.141 197.816C405.977 198.551 406.395 199.547 406.395 200.805C406.395 202.07 405.965 203.086 405.105 203.852C404.246 204.617 403.09 205 401.637 205H396.27V192.32H398.438V196.691ZM398.438 198.461V203.23H401.66C402.473 203.23 403.102 203.023 403.547 202.609C403.992 202.188 404.215 201.613 404.215 200.887C404.215 200.184 403.996 199.609 403.559 199.164C403.129 198.711 402.523 198.477 401.742 198.461H398.438ZM419.203 201.824L422.156 192.32H424.477L419.379 206.957C418.59 209.066 417.336 210.121 415.617 210.121L415.207 210.086L414.398 209.934V208.176L414.984 208.223C415.719 208.223 416.289 208.074 416.695 207.777C417.109 207.48 417.449 206.938 417.715 206.148L418.195 204.859L413.672 192.32H416.039L419.203 201.824ZM435.996 205H433.816V200.406C432.863 200.656 431.887 200.781 430.887 200.781C429.301 200.781 428.09 200.375 427.254 199.562C426.426 198.75 426.004 197.594 425.988 196.094V192.309H428.156V196.164C428.195 198.055 429.105 199 430.887 199C431.887 199 432.863 198.875 433.816 198.625V192.32H435.996V205ZM444.738 205.234C443.02 205.234 441.621 204.672 440.543 203.547C439.465 202.414 438.926 200.902 438.926 199.012V198.613C438.926 197.355 439.164 196.234 439.641 195.25C440.125 194.258 440.797 193.484 441.656 192.93C442.523 192.367 443.461 192.086 444.469 192.086C446.117 192.086 447.398 192.629 448.312 193.715C449.227 194.801 449.684 196.355 449.684 198.379V199.281H441.094C441.125 200.531 441.488 201.543 442.184 202.316C442.887 203.082 443.777 203.465 444.855 203.465C445.621 203.465 446.27 203.309 446.801 202.996C447.332 202.684 447.797 202.27 448.195 201.754L449.52 202.785C448.457 204.418 446.863 205.234 444.738 205.234ZM444.469 193.867C443.594 193.867 442.859 194.188 442.266 194.828C441.672 195.461 441.305 196.352 441.164 197.5H447.516V197.336C447.453 196.234 447.156 195.383 446.625 194.781C446.094 194.172 445.375 193.867 444.469 193.867ZM461.484 194.078H457.23V205H455.062V194.078H450.891V192.32H461.484V194.078ZM473.953 205H471.785V199.586H465.961V205H463.781V192.32H465.961V197.816H471.785V192.32H473.953V205ZM481.594 201.824L484.547 192.32H486.867L481.77 206.957C480.98 209.066 479.727 210.121 478.008 210.121L477.598 210.086L476.789 209.934V208.176L477.375 208.223C478.109 208.223 478.68 208.074 479.086 207.777C479.5 207.48 479.84 206.938 480.105 206.148L480.586 204.859L476.062 192.32H478.43L481.594 201.824ZM491.18 197.699H494.227C494.391 196.012 494.988 194.656 496.02 193.633C497.059 192.602 498.367 192.086 499.945 192.086C501.602 192.086 502.957 192.645 504.012 193.762C505.066 194.879 505.637 196.332 505.723 198.121L505.734 198.801C505.734 200.035 505.492 201.148 505.008 202.141C504.523 203.133 503.844 203.898 502.969 204.438C502.094 204.969 501.094 205.234 499.969 205.234C498.336 205.234 497 204.703 495.961 203.641C494.922 202.57 494.34 201.184 494.215 199.48H491.18V205H489.012V192.32H491.18V197.699ZM496.359 198.801C496.359 200.207 496.684 201.336 497.332 202.188C497.988 203.039 498.867 203.465 499.969 203.465C501.07 203.465 501.941 203.031 502.582 202.164C503.23 201.297 503.555 200.09 503.555 198.543C503.555 197.16 503.227 196.035 502.57 195.168C501.914 194.301 501.039 193.867 499.945 193.867C498.867 193.867 498 194.293 497.344 195.145C496.688 195.996 496.359 197.215 496.359 198.801ZM521.332 195.789C521.332 195.195 521.105 194.727 520.652 194.383C520.199 194.031 519.578 193.855 518.789 193.855C518.023 193.855 517.383 194.055 516.867 194.453C516.359 194.852 516.105 195.32 516.105 195.859H513.949C513.949 194.758 514.41 193.855 515.332 193.152C516.254 192.449 517.406 192.098 518.789 192.098C520.273 192.098 521.43 192.418 522.258 193.059C523.086 193.691 523.5 194.598 523.5 195.777C523.5 196.348 523.328 196.871 522.984 197.348C522.641 197.824 522.152 198.203 521.52 198.484C522.996 198.984 523.734 199.969 523.734 201.438C523.734 202.602 523.285 203.523 522.387 204.203C521.488 204.883 520.289 205.223 518.789 205.223C517.328 205.223 516.121 204.867 515.168 204.156C514.223 203.438 513.75 202.469 513.75 201.25H515.906C515.906 201.867 516.18 202.398 516.727 202.844C517.281 203.281 517.969 203.5 518.789 203.5C519.617 203.5 520.285 203.309 520.793 202.926C521.301 202.543 521.555 202.047 521.555 201.438C521.555 200.727 521.34 200.219 520.91 199.914C520.488 199.602 519.828 199.445 518.93 199.445H516.762V197.617H519.117C520.594 197.578 521.332 196.969 521.332 195.789ZM534.375 205C534.25 204.75 534.148 204.305 534.07 203.664C533.062 204.711 531.859 205.234 530.461 205.234C529.211 205.234 528.184 204.883 527.379 204.18C526.582 203.469 526.184 202.57 526.184 201.484C526.184 200.164 526.684 199.141 527.684 198.414C528.691 197.68 530.105 197.312 531.926 197.312H534.035V196.316C534.035 195.559 533.809 194.957 533.355 194.512C532.902 194.059 532.234 193.832 531.352 193.832C530.578 193.832 529.93 194.027 529.406 194.418C528.883 194.809 528.621 195.281 528.621 195.836H526.441C526.441 195.203 526.664 194.594 527.109 194.008C527.562 193.414 528.172 192.945 528.938 192.602C529.711 192.258 530.559 192.086 531.48 192.086C532.941 192.086 534.086 192.453 534.914 193.188C535.742 193.914 536.172 194.918 536.203 196.199V202.035C536.203 203.199 536.352 204.125 536.648 204.812V205H534.375ZM530.777 203.348C531.457 203.348 532.102 203.172 532.711 202.82C533.32 202.469 533.762 202.012 534.035 201.449V198.848H532.336C529.68 198.848 528.352 199.625 528.352 201.18C528.352 201.859 528.578 202.391 529.031 202.773C529.484 203.156 530.066 203.348 530.777 203.348ZM549.973 205H547.805V194.113H541.969V205H539.789V192.32H549.973V205ZM561.656 192.32H563.824V205H561.656V195.754L555.809 205H553.641V192.32H555.809V201.578L561.656 192.32ZM572.391 203.465C573.164 203.465 573.84 203.23 574.418 202.762C574.996 202.293 575.316 201.707 575.379 201.004H577.43C577.391 201.73 577.141 202.422 576.68 203.078C576.219 203.734 575.602 204.258 574.828 204.648C574.062 205.039 573.25 205.234 572.391 205.234C570.664 205.234 569.289 204.66 568.266 203.512C567.25 202.355 566.742 200.777 566.742 198.777V198.414C566.742 197.18 566.969 196.082 567.422 195.121C567.875 194.16 568.523 193.414 569.367 192.883C570.219 192.352 571.223 192.086 572.379 192.086C573.801 192.086 574.98 192.512 575.918 193.363C576.863 194.215 577.367 195.32 577.43 196.68H575.379C575.316 195.859 575.004 195.188 574.441 194.664C573.887 194.133 573.199 193.867 572.379 193.867C571.277 193.867 570.422 194.266 569.812 195.062C569.211 195.852 568.91 196.996 568.91 198.496V198.906C568.91 200.367 569.211 201.492 569.812 202.281C570.414 203.07 571.273 203.465 572.391 203.465ZM582.234 196.691H585.527C586.965 196.707 588.102 197.082 588.938 197.816C589.773 198.551 590.191 199.547 590.191 200.805C590.191 202.07 589.762 203.086 588.902 203.852C588.043 204.617 586.887 205 585.434 205H580.066V192.32H582.234V196.691ZM582.234 198.461V203.23H585.457C586.27 203.23 586.898 203.023 587.344 202.609C587.789 202.188 588.012 201.613 588.012 200.887C588.012 200.184 587.793 199.609 587.355 199.164C586.926 198.711 586.32 198.477 585.539 198.461H582.234ZM608.543 192.32V205H606.363V200.066H603.094L600.105 205H597.762L600.949 199.738C600.137 199.441 599.512 198.984 599.074 198.367C598.645 197.742 598.43 197.016 598.43 196.188C598.43 195.031 598.863 194.102 599.73 193.398C600.598 192.688 601.758 192.328 603.211 192.32H608.543ZM600.609 196.211C600.609 196.828 600.82 197.328 601.242 197.711C601.664 198.086 602.223 198.277 602.918 198.285H606.363V194.078H603.246C602.441 194.078 601.801 194.277 601.324 194.676C600.848 195.066 600.609 195.578 600.609 196.211ZM622.383 205H620.215V199.586H614.391V205H612.211V192.32H614.391V197.816H620.215V192.32H622.383V205ZM625.77 203.23L626.52 202.305C627.363 201.211 627.844 199.57 627.961 197.383L628.16 192.32H636.328V203.23H637.957V208.727H635.789V205H626.941V208.727H624.773L624.785 203.23H625.77ZM628.336 203.23H634.16V194.324H630.258L630.129 197.348C629.996 199.871 629.398 201.832 628.336 203.23ZM645.621 205.234C643.902 205.234 642.504 204.672 641.426 203.547C640.348 202.414 639.809 200.902 639.809 199.012V198.613C639.809 197.355 640.047 196.234 640.523 195.25C641.008 194.258 641.68 193.484 642.539 192.93C643.406 192.367 644.344 192.086 645.352 192.086C647 192.086 648.281 192.629 649.195 193.715C650.109 194.801 650.566 196.355 650.566 198.379V199.281H641.977C642.008 200.531 642.371 201.543 643.066 202.316C643.77 203.082 644.66 203.465 645.738 203.465C646.504 203.465 647.152 203.309 647.684 202.996C648.215 202.684 648.68 202.27 649.078 201.754L650.402 202.785C649.34 204.418 647.746 205.234 645.621 205.234ZM645.352 193.867C644.477 193.867 643.742 194.188 643.148 194.828C642.555 195.461 642.188 196.352 642.047 197.5H648.398V197.336C648.336 196.234 648.039 195.383 647.508 194.781C646.977 194.172 646.258 193.867 645.352 193.867ZM657.035 199.598H655.453V205H653.273V192.32H655.453V197.688H656.871L661.137 192.32H663.762L658.746 198.414L664.184 205H661.43L657.035 199.598ZM670.945 203.465C671.719 203.465 672.395 203.23 672.973 202.762C673.551 202.293 673.871 201.707 673.934 201.004H675.984C675.945 201.73 675.695 202.422 675.234 203.078C674.773 203.734 674.156 204.258 673.383 204.648C672.617 205.039 671.805 205.234 670.945 205.234C669.219 205.234 667.844 204.66 666.82 203.512C665.805 202.355 665.297 200.777 665.297 198.777V198.414C665.297 197.18 665.523 196.082 665.977 195.121C666.43 194.16 667.078 193.414 667.922 192.883C668.773 192.352 669.777 192.086 670.934 192.086C672.355 192.086 673.535 192.512 674.473 193.363C675.418 194.215 675.922 195.32 675.984 196.68H673.934C673.871 195.859 673.559 195.188 672.996 194.664C672.441 194.133 671.754 193.867 670.934 193.867C669.832 193.867 668.977 194.266 668.367 195.062C667.766 195.852 667.465 196.996 667.465 198.496V198.906C667.465 200.367 667.766 201.492 668.367 202.281C668.969 203.07 669.828 203.465 670.945 203.465Z" fill="#F1E8E8"/>
<path d="M98.332 251.184H96.0938V247H83.8477V251.195H81.5977L81.5859 245.16H82.9805C83.7148 244.332 84.2969 243.223 84.7266 241.832C85.1641 240.434 85.4375 238.902 85.5469 237.238L85.9219 229.938H96.1289V245.16H98.3555L98.332 251.184ZM85.5469 245.16H93.8672V231.789H88.0898L87.8438 236.805C87.7422 238.766 87.4805 240.438 87.0586 241.82C86.6445 243.203 86.1406 244.316 85.5469 245.16ZM100.113 240.543C100.113 239.301 100.355 238.184 100.84 237.191C101.332 236.199 102.012 235.434 102.879 234.895C103.754 234.355 104.75 234.086 105.867 234.086C107.594 234.086 108.988 234.684 110.051 235.879C111.121 237.074 111.656 238.664 111.656 240.648V240.801C111.656 242.035 111.418 243.145 110.941 244.129C110.473 245.105 109.797 245.867 108.914 246.414C108.039 246.961 107.031 247.234 105.891 247.234C104.172 247.234 102.777 246.637 101.707 245.441C100.645 244.246 100.113 242.664 100.113 240.695V240.543ZM102.293 240.801C102.293 242.207 102.617 243.336 103.266 244.188C103.922 245.039 104.797 245.465 105.891 245.465C106.992 245.465 107.867 245.035 108.516 244.176C109.164 243.309 109.488 242.098 109.488 240.543C109.488 239.152 109.156 238.027 108.492 237.168C107.836 236.301 106.961 235.867 105.867 235.867C104.797 235.867 103.934 236.293 103.277 237.145C102.621 237.996 102.293 239.215 102.293 240.801ZM119.941 235.047C121.535 235.047 122.809 235.582 123.762 236.652C124.723 237.715 125.203 239.117 125.203 240.859V241.059C125.203 242.254 124.973 243.324 124.512 244.27C124.051 245.207 123.387 245.938 122.52 246.461C121.66 246.977 120.668 247.234 119.543 247.234C117.84 247.234 116.469 246.668 115.43 245.535C114.391 244.395 113.871 242.867 113.871 240.953V239.898C113.871 237.234 114.363 235.117 115.348 233.547C116.34 231.977 117.801 231.02 119.73 230.676C120.824 230.48 121.562 230.242 121.945 229.961C122.328 229.68 122.52 229.293 122.52 228.801H124.301C124.301 229.777 124.078 230.539 123.633 231.086C123.195 231.633 122.492 232.02 121.523 232.246L119.906 232.609C118.617 232.914 117.648 233.43 117 234.156C116.359 234.875 115.941 235.836 115.746 237.039C116.895 235.711 118.293 235.047 119.941 235.047ZM119.52 236.828C118.457 236.828 117.613 237.188 116.988 237.906C116.363 238.617 116.051 239.605 116.051 240.871V241.059C116.051 242.418 116.363 243.496 116.988 244.293C117.621 245.082 118.473 245.477 119.543 245.477C120.621 245.477 121.473 245.078 122.098 244.281C122.723 243.484 123.035 242.32 123.035 240.789C123.035 239.594 122.719 238.637 122.086 237.918C121.461 237.191 120.605 236.828 119.52 236.828ZM135.469 247C135.344 246.75 135.242 246.305 135.164 245.664C134.156 246.711 132.953 247.234 131.555 247.234C130.305 247.234 129.277 246.883 128.473 246.18C127.676 245.469 127.277 244.57 127.277 243.484C127.277 242.164 127.777 241.141 128.777 240.414C129.785 239.68 131.199 239.312 133.02 239.312H135.129V238.316C135.129 237.559 134.902 236.957 134.449 236.512C133.996 236.059 133.328 235.832 132.445 235.832C131.672 235.832 131.023 236.027 130.5 236.418C129.977 236.809 129.715 237.281 129.715 237.836H127.535C127.535 237.203 127.758 236.594 128.203 236.008C128.656 235.414 129.266 234.945 130.031 234.602C130.805 234.258 131.652 234.086 132.574 234.086C134.035 234.086 135.18 234.453 136.008 235.188C136.836 235.914 137.266 236.918 137.297 238.199V244.035C137.297 245.199 137.445 246.125 137.742 246.812V247H135.469ZM131.871 245.348C132.551 245.348 133.195 245.172 133.805 244.82C134.414 244.469 134.855 244.012 135.129 243.449V240.848H133.43C130.773 240.848 129.445 241.625 129.445 243.18C129.445 243.859 129.672 244.391 130.125 244.773C130.578 245.156 131.16 245.348 131.871 245.348ZM140.895 247V234.32H145.84C147.527 234.32 148.82 234.617 149.719 235.211C150.625 235.797 151.078 236.66 151.078 237.801C151.078 238.387 150.902 238.918 150.551 239.395C150.199 239.863 149.68 240.223 148.992 240.473C149.758 240.652 150.371 241.004 150.832 241.527C151.301 242.051 151.535 242.676 151.535 243.402C151.535 244.566 151.105 245.457 150.246 246.074C149.395 246.691 148.188 247 146.625 247H140.895ZM143.062 241.434V245.254H146.648C147.555 245.254 148.23 245.086 148.676 244.75C149.129 244.414 149.355 243.941 149.355 243.332C149.355 242.066 148.426 241.434 146.566 241.434H143.062ZM143.062 239.699H145.863C147.895 239.699 148.91 239.105 148.91 237.918C148.91 236.73 147.949 236.117 146.027 236.078H143.062V239.699ZM162.609 234.32H164.777V247H162.609V237.754L156.762 247H154.594V234.32H156.762V243.578L162.609 234.32ZM177.68 236.078H173.426V247H171.258V236.078H167.086V234.32H177.68V236.078ZM182.156 238.691H185.449C186.887 238.707 188.023 239.082 188.859 239.816C189.695 240.551 190.113 241.547 190.113 242.805C190.113 244.07 189.684 245.086 188.824 245.852C187.965 246.617 186.809 247 185.355 247H179.988V234.32H182.156V238.691ZM182.156 240.461V245.23H185.379C186.191 245.23 186.82 245.023 187.266 244.609C187.711 244.188 187.934 243.613 187.934 242.887C187.934 242.184 187.715 241.609 187.277 241.164C186.848 240.711 186.242 240.477 185.461 240.461H182.156ZM206.977 234.32H209.145V247H206.977V237.754L201.129 247H198.961V234.32H201.129V243.578L206.977 234.32ZM223.02 234.32V247H220.84V236.113H216.527L216.27 240.859C216.129 243.039 215.762 244.598 215.168 245.535C214.582 246.473 213.648 246.961 212.367 247H211.5V245.09L212.121 245.043C212.824 244.965 213.328 244.559 213.633 243.824C213.938 243.09 214.133 241.73 214.219 239.746L214.453 234.32H223.02ZM234.703 234.32H236.871V247H234.703V237.754L228.855 247H226.688V234.32H228.855V243.578L234.703 234.32ZM246.504 247V234.32H251.449C253.137 234.32 254.43 234.617 255.328 235.211C256.234 235.797 256.688 236.66 256.688 237.801C256.688 238.387 256.512 238.918 256.16 239.395C255.809 239.863 255.289 240.223 254.602 240.473C255.367 240.652 255.98 241.004 256.441 241.527C256.91 242.051 257.145 242.676 257.145 243.402C257.145 244.566 256.715 245.457 255.855 246.074C255.004 246.691 253.797 247 252.234 247H246.504ZM248.672 241.434V245.254H252.258C253.164 245.254 253.84 245.086 254.285 244.75C254.738 244.414 254.965 243.941 254.965 243.332C254.965 242.066 254.035 241.434 252.176 241.434H248.672ZM248.672 239.699H251.473C253.504 239.699 254.52 239.105 254.52 237.918C254.52 236.73 253.559 236.117 251.637 236.078H248.672V239.699ZM262.383 238.691H265.676C267.113 238.707 268.25 239.082 269.086 239.816C269.922 240.551 270.34 241.547 270.34 242.805C270.34 244.07 269.91 245.086 269.051 245.852C268.191 246.617 267.035 247 265.582 247H260.215V234.32H262.383V238.691ZM274.863 247H272.684V234.32H274.863V247ZM262.383 240.461V245.23H265.605C266.418 245.23 267.047 245.023 267.492 244.609C267.938 244.188 268.16 243.613 268.16 242.887C268.16 242.184 267.941 241.609 267.504 241.164C267.074 240.711 266.469 240.477 265.688 240.461H262.383ZM284.215 235.047C285.809 235.047 287.082 235.582 288.035 236.652C288.996 237.715 289.477 239.117 289.477 240.859V241.059C289.477 242.254 289.246 243.324 288.785 244.27C288.324 245.207 287.66 245.938 286.793 246.461C285.934 246.977 284.941 247.234 283.816 247.234C282.113 247.234 280.742 246.668 279.703 245.535C278.664 244.395 278.145 242.867 278.145 240.953V239.898C278.145 237.234 278.637 235.117 279.621 233.547C280.613 231.977 282.074 231.02 284.004 230.676C285.098 230.48 285.836 230.242 286.219 229.961C286.602 229.68 286.793 229.293 286.793 228.801H288.574C288.574 229.777 288.352 230.539 287.906 231.086C287.469 231.633 286.766 232.02 285.797 232.246L284.18 232.609C282.891 232.914 281.922 233.43 281.273 234.156C280.633 234.875 280.215 235.836 280.02 237.039C281.168 235.711 282.566 235.047 284.215 235.047ZM283.793 236.828C282.73 236.828 281.887 237.188 281.262 237.906C280.637 238.617 280.324 239.605 280.324 240.871V241.059C280.324 242.418 280.637 243.496 281.262 244.293C281.895 245.082 282.746 245.477 283.816 245.477C284.895 245.477 285.746 245.078 286.371 244.281C286.996 243.484 287.309 242.32 287.309 240.789C287.309 239.594 286.992 238.637 286.359 237.918C285.734 237.191 284.879 236.828 283.793 236.828ZM302.414 240.801C302.414 242.73 301.973 244.285 301.09 245.465C300.207 246.645 299.012 247.234 297.504 247.234C295.965 247.234 294.754 246.746 293.871 245.77V251.875H291.703V234.32H293.684L293.789 235.727C294.672 234.633 295.898 234.086 297.469 234.086C298.992 234.086 300.195 234.66 301.078 235.809C301.969 236.957 302.414 238.555 302.414 240.602V240.801ZM300.246 240.555C300.246 239.125 299.941 237.996 299.332 237.168C298.723 236.34 297.887 235.926 296.824 235.926C295.512 235.926 294.527 236.508 293.871 237.672V243.73C294.52 244.887 295.512 245.465 296.848 245.465C297.887 245.465 298.711 245.055 299.32 244.234C299.938 243.406 300.246 242.18 300.246 240.555ZM313.008 247C312.883 246.75 312.781 246.305 312.703 245.664C311.695 246.711 310.492 247.234 309.094 247.234C307.844 247.234 306.816 246.883 306.012 246.18C305.215 245.469 304.816 244.57 304.816 243.484C304.816 242.164 305.316 241.141 306.316 240.414C307.324 239.68 308.738 239.312 310.559 239.312H312.668V238.316C312.668 237.559 312.441 236.957 311.988 236.512C311.535 236.059 310.867 235.832 309.984 235.832C309.211 235.832 308.562 236.027 308.039 236.418C307.516 236.809 307.254 237.281 307.254 237.836H305.074C305.074 237.203 305.297 236.594 305.742 236.008C306.195 235.414 306.805 234.945 307.57 234.602C308.344 234.258 309.191 234.086 310.113 234.086C311.574 234.086 312.719 234.453 313.547 235.188C314.375 235.914 314.805 236.918 314.836 238.199V244.035C314.836 245.199 314.984 246.125 315.281 246.812V247H313.008ZM309.41 245.348C310.09 245.348 310.734 245.172 311.344 244.82C311.953 244.469 312.395 244.012 312.668 243.449V240.848H310.969C308.312 240.848 306.984 241.625 306.984 243.18C306.984 243.859 307.211 244.391 307.664 244.773C308.117 245.156 308.699 245.348 309.41 245.348ZM327.469 236.078H323.215V247H321.047V236.078H316.875V234.32H327.469V236.078ZM331.945 238.691H335.238C336.676 238.707 337.812 239.082 338.648 239.816C339.484 240.551 339.902 241.547 339.902 242.805C339.902 244.07 339.473 245.086 338.613 245.852C337.754 246.617 336.598 247 335.145 247H329.777V234.32H331.945V238.691ZM331.945 240.461V245.23H335.168C335.98 245.23 336.609 245.023 337.055 244.609C337.5 244.188 337.723 243.613 337.723 242.887C337.723 242.184 337.504 241.609 337.066 241.164C336.637 240.711 336.031 240.477 335.25 240.461H331.945ZM353.648 245.465C354.422 245.465 355.098 245.23 355.676 244.762C356.254 244.293 356.574 243.707 356.637 243.004H358.688C358.648 243.73 358.398 244.422 357.938 245.078C357.477 245.734 356.859 246.258 356.086 246.648C355.32 247.039 354.508 247.234 353.648 247.234C351.922 247.234 350.547 246.66 349.523 245.512C348.508 244.355 348 242.777 348 240.777V240.414C348 239.18 348.227 238.082 348.68 237.121C349.133 236.16 349.781 235.414 350.625 234.883C351.477 234.352 352.48 234.086 353.637 234.086C355.059 234.086 356.238 234.512 357.176 235.363C358.121 236.215 358.625 237.32 358.688 238.68H356.637C356.574 237.859 356.262 237.188 355.699 236.664C355.145 236.133 354.457 235.867 353.637 235.867C352.535 235.867 351.68 236.266 351.07 237.062C350.469 237.852 350.168 238.996 350.168 240.496V240.906C350.168 242.367 350.469 243.492 351.07 244.281C351.672 245.07 352.531 245.465 353.648 245.465ZM365.273 243.824L368.227 234.32H370.547L365.449 248.957C364.66 251.066 363.406 252.121 361.688 252.121L361.277 252.086L360.469 251.934V250.176L361.055 250.223C361.789 250.223 362.359 250.074 362.766 249.777C363.18 249.48 363.52 248.938 363.785 248.148L364.266 246.859L359.742 234.32H362.109L365.273 243.824ZM374.73 234.32V245.23H379.371V234.32H381.539V245.23H386.168V234.32H388.348V245.23H390.129L389.918 250.762H387.973V247H372.551V234.32H374.73ZM397.746 247.234C396.027 247.234 394.629 246.672 393.551 245.547C392.473 244.414 391.934 242.902 391.934 241.012V240.613C391.934 239.355 392.172 238.234 392.648 237.25C393.133 236.258 393.805 235.484 394.664 234.93C395.531 234.367 396.469 234.086 397.477 234.086C399.125 234.086 400.406 234.629 401.32 235.715C402.234 236.801 402.691 238.355 402.691 240.379V241.281H394.102C394.133 242.531 394.496 243.543 395.191 244.316C395.895 245.082 396.785 245.465 397.863 245.465C398.629 245.465 399.277 245.309 399.809 244.996C400.34 244.684 400.805 244.27 401.203 243.754L402.527 244.785C401.465 246.418 399.871 247.234 397.746 247.234ZM397.477 235.867C396.602 235.867 395.867 236.188 395.273 236.828C394.68 237.461 394.312 238.352 394.172 239.5H400.523V239.336C400.461 238.234 400.164 237.383 399.633 236.781C399.102 236.172 398.383 235.867 397.477 235.867ZM410.297 245.465C411.07 245.465 411.746 245.23 412.324 244.762C412.902 244.293 413.223 243.707 413.285 243.004H415.336C415.297 243.73 415.047 244.422 414.586 245.078C414.125 245.734 413.508 246.258 412.734 246.648C411.969 247.039 411.156 247.234 410.297 247.234C408.57 247.234 407.195 246.66 406.172 245.512C405.156 244.355 404.648 242.777 404.648 240.777V240.414C404.648 239.18 404.875 238.082 405.328 237.121C405.781 236.16 406.43 235.414 407.273 234.883C408.125 234.352 409.129 234.086 410.285 234.086C411.707 234.086 412.887 234.512 413.824 235.363C414.77 236.215 415.273 237.32 415.336 238.68H413.285C413.223 237.859 412.91 237.188 412.348 236.664C411.793 236.133 411.105 235.867 410.285 235.867C409.184 235.867 408.328 236.266 407.719 237.062C407.117 237.852 406.816 238.996 406.816 240.496V240.906C406.816 242.367 407.117 243.492 407.719 244.281C408.32 245.07 409.18 245.465 410.297 245.465ZM427.195 236.078H422.941V247H420.773V236.078H416.602V234.32H427.195V236.078ZM429.504 247V234.32H434.449C436.137 234.32 437.43 234.617 438.328 235.211C439.234 235.797 439.688 236.66 439.688 237.801C439.688 238.387 439.512 238.918 439.16 239.395C438.809 239.863 438.289 240.223 437.602 240.473C438.367 240.652 438.98 241.004 439.441 241.527C439.91 242.051 440.145 242.676 440.145 243.402C440.145 244.566 439.715 245.457 438.855 246.074C438.004 246.691 436.797 247 435.234 247H429.504ZM431.672 241.434V245.254H435.258C436.164 245.254 436.84 245.086 437.285 244.75C437.738 244.414 437.965 243.941 437.965 243.332C437.965 242.066 437.035 241.434 435.176 241.434H431.672ZM431.672 239.699H434.473C436.504 239.699 437.52 239.105 437.52 237.918C437.52 236.73 436.559 236.117 434.637 236.078H431.672V239.699ZM447.023 243.824L449.977 234.32H452.297L447.199 248.957C446.41 251.066 445.156 252.121 443.438 252.121L443.027 252.086L442.219 251.934V250.176L442.805 250.223C443.539 250.223 444.109 250.074 444.516 249.777C444.93 249.48 445.27 248.938 445.535 248.148L446.016 246.859L441.492 234.32H443.859L447.023 243.824ZM456.609 239.699H459.656C459.82 238.012 460.418 236.656 461.449 235.633C462.488 234.602 463.797 234.086 465.375 234.086C467.031 234.086 468.387 234.645 469.441 235.762C470.496 236.879 471.066 238.332 471.152 240.121L471.164 240.801C471.164 242.035 470.922 243.148 470.438 244.141C469.953 245.133 469.273 245.898 468.398 246.438C467.523 246.969 466.523 247.234 465.398 247.234C463.766 247.234 462.43 246.703 461.391 245.641C460.352 244.57 459.77 243.184 459.645 241.48H456.609V247H454.441V234.32H456.609V239.699ZM461.789 240.801C461.789 242.207 462.113 243.336 462.762 244.188C463.418 245.039 464.297 245.465 465.398 245.465C466.5 245.465 467.371 245.031 468.012 244.164C468.66 243.297 468.984 242.09 468.984 240.543C468.984 239.16 468.656 238.035 468 237.168C467.344 236.301 466.469 235.867 465.375 235.867C464.297 235.867 463.43 236.293 462.773 237.145C462.117 237.996 461.789 239.215 461.789 240.801ZM476.074 234.32V245.23H480.715V234.32H482.883V245.23H487.512V234.32H489.691V245.23H491.473L491.262 250.762H489.316V247H473.895V234.32H476.074ZM497.836 243.824L500.789 234.32H503.109L498.012 248.957C497.223 251.066 495.969 252.121 494.25 252.121L493.84 252.086L493.031 251.934V250.176L493.617 250.223C494.352 250.223 494.922 250.074 495.328 249.777C495.742 249.48 496.082 248.938 496.348 248.148L496.828 246.859L492.305 234.32H494.672L497.836 243.824ZM507.422 239.699H510.469C510.633 238.012 511.23 236.656 512.262 235.633C513.301 234.602 514.609 234.086 516.188 234.086C517.844 234.086 519.199 234.645 520.254 235.762C521.309 236.879 521.879 238.332 521.965 240.121L521.977 240.801C521.977 242.035 521.734 243.148 521.25 244.141C520.766 245.133 520.086 245.898 519.211 246.438C518.336 246.969 517.336 247.234 516.211 247.234C514.578 247.234 513.242 246.703 512.203 245.641C511.164 244.57 510.582 243.184 510.457 241.48H507.422V247H505.254V234.32H507.422V239.699ZM512.602 240.801C512.602 242.207 512.926 243.336 513.574 244.188C514.23 245.039 515.109 245.465 516.211 245.465C517.312 245.465 518.184 245.031 518.824 244.164C519.473 243.297 519.797 242.09 519.797 240.543C519.797 239.16 519.469 238.035 518.812 237.168C518.156 236.301 517.281 235.867 516.188 235.867C515.109 235.867 514.242 236.293 513.586 237.145C512.93 237.996 512.602 239.215 512.602 240.801ZM534.551 241.598H532.969V247H530.789V234.32H532.969V239.688H534.387L538.652 234.32H541.277L536.262 240.414L541.699 247H538.945L534.551 241.598ZM551.391 247C551.266 246.75 551.164 246.305 551.086 245.664C550.078 246.711 548.875 247.234 547.477 247.234C546.227 247.234 545.199 246.883 544.395 246.18C543.598 245.469 543.199 244.57 543.199 243.484C543.199 242.164 543.699 241.141 544.699 240.414C545.707 239.68 547.121 239.312 548.941 239.312H551.051V238.316C551.051 237.559 550.824 236.957 550.371 236.512C549.918 236.059 549.25 235.832 548.367 235.832C547.594 235.832 546.945 236.027 546.422 236.418C545.898 236.809 545.637 237.281 545.637 237.836H543.457C543.457 237.203 543.68 236.594 544.125 236.008C544.578 235.414 545.188 234.945 545.953 234.602C546.727 234.258 547.574 234.086 548.496 234.086C549.957 234.086 551.102 234.453 551.93 235.188C552.758 235.914 553.188 236.918 553.219 238.199V244.035C553.219 245.199 553.367 246.125 553.664 246.812V247H551.391ZM547.793 245.348C548.473 245.348 549.117 245.172 549.727 244.82C550.336 244.469 550.777 244.012 551.051 243.449V240.848H549.352C546.695 240.848 545.367 241.625 545.367 243.18C545.367 243.859 545.594 244.391 546.047 244.773C546.5 245.156 547.082 245.348 547.793 245.348ZM561.703 245.465C562.477 245.465 563.152 245.23 563.73 244.762C564.309 244.293 564.629 243.707 564.691 243.004H566.742C566.703 243.73 566.453 244.422 565.992 245.078C565.531 245.734 564.914 246.258 564.141 246.648C563.375 247.039 562.562 247.234 561.703 247.234C559.977 247.234 558.602 246.66 557.578 245.512C556.562 244.355 556.055 242.777 556.055 240.777V240.414C556.055 239.18 556.281 238.082 556.734 237.121C557.188 236.16 557.836 235.414 558.68 234.883C559.531 234.352 560.535 234.086 561.691 234.086C563.113 234.086 564.293 234.512 565.23 235.363C566.176 236.215 566.68 237.32 566.742 238.68H564.691C564.629 237.859 564.316 237.188 563.754 236.664C563.199 236.133 562.512 235.867 561.691 235.867C560.59 235.867 559.734 236.266 559.125 237.062C558.523 237.852 558.223 238.996 558.223 240.496V240.906C558.223 242.367 558.523 243.492 559.125 244.281C559.727 245.07 560.586 245.465 561.703 245.465ZM574.266 245.465C575.039 245.465 575.715 245.23 576.293 244.762C576.871 244.293 577.191 243.707 577.254 243.004H579.305C579.266 243.73 579.016 244.422 578.555 245.078C578.094 245.734 577.477 246.258 576.703 246.648C575.938 247.039 575.125 247.234 574.266 247.234C572.539 247.234 571.164 246.66 570.141 245.512C569.125 244.355 568.617 242.777 568.617 240.777V240.414C568.617 239.18 568.844 238.082 569.297 237.121C569.75 236.16 570.398 235.414 571.242 234.883C572.094 234.352 573.098 234.086 574.254 234.086C575.676 234.086 576.855 234.512 577.793 235.363C578.738 236.215 579.242 237.32 579.305 238.68H577.254C577.191 237.859 576.879 237.188 576.316 236.664C575.762 236.133 575.074 235.867 574.254 235.867C573.152 235.867 572.297 236.266 571.688 237.062C571.086 237.852 570.785 238.996 570.785 240.496V240.906C570.785 242.367 571.086 243.492 571.688 244.281C572.289 245.07 573.148 245.465 574.266 245.465ZM585.891 243.824L588.844 234.32H591.164L586.066 248.957C585.277 251.066 584.023 252.121 582.305 252.121L581.895 252.086L581.086 251.934V250.176L581.672 250.223C582.406 250.223 582.977 250.074 583.383 249.777C583.797 249.48 584.137 248.938 584.402 248.148L584.883 246.859L580.359 234.32H582.727L585.891 243.824Z" fill="#F1E8E8"/>
<path d="M96.1055 281.02C96.1055 282.691 95.8242 284.152 95.2617 285.402C94.6992 286.645 93.9023 287.594 92.8711 288.25C91.8398 288.906 90.6367 289.234 89.2617 289.234C87.918 289.234 86.7266 288.906 85.6875 288.25C84.6484 287.586 83.8398 286.645 83.2617 285.426C82.6914 284.199 82.3984 282.781 82.3828 281.172V279.941C82.3828 278.301 82.668 276.852 83.2383 275.594C83.8086 274.336 84.6133 273.375 85.6523 272.711C86.6992 272.039 87.8945 271.703 89.2383 271.703C90.6055 271.703 91.8086 272.035 92.8477 272.699C93.8945 273.355 94.6992 274.312 95.2617 275.57C95.8242 276.82 96.1055 278.277 96.1055 279.941V281.02ZM93.8672 279.918C93.8672 277.895 93.4609 276.344 92.6484 275.266C91.8359 274.18 90.6992 273.637 89.2383 273.637C87.8164 273.637 86.6953 274.18 85.875 275.266C85.0625 276.344 84.6445 277.844 84.6211 279.766V281.02C84.6211 282.98 85.0312 284.523 85.8516 285.648C86.6797 286.766 87.8164 287.324 89.2617 287.324C90.7148 287.324 91.8398 286.797 92.6367 285.742C93.4336 284.68 93.8438 283.16 93.8672 281.184V279.918ZM109.512 289H107.344V278.113H101.508V289H99.3281V276.32H109.512V289ZM123.387 276.32V289H121.207V278.113H116.895L116.637 282.859C116.496 285.039 116.129 286.598 115.535 287.535C114.949 288.473 114.016 288.961 112.734 289H111.867V287.09L112.488 287.043C113.191 286.965 113.695 286.559 114 285.824C114.305 285.09 114.5 283.73 114.586 281.746L114.82 276.32H123.387ZM134.695 289C134.57 288.75 134.469 288.305 134.391 287.664C133.383 288.711 132.18 289.234 130.781 289.234C129.531 289.234 128.504 288.883 127.699 288.18C126.902 287.469 126.504 286.57 126.504 285.484C126.504 284.164 127.004 283.141 128.004 282.414C129.012 281.68 130.426 281.312 132.246 281.312H134.355V280.316C134.355 279.559 134.129 278.957 133.676 278.512C133.223 278.059 132.555 277.832 131.672 277.832C130.898 277.832 130.25 278.027 129.727 278.418C129.203 278.809 128.941 279.281 128.941 279.836H126.762C126.762 279.203 126.984 278.594 127.43 278.008C127.883 277.414 128.492 276.945 129.258 276.602C130.031 276.258 130.879 276.086 131.801 276.086C133.262 276.086 134.406 276.453 135.234 277.188C136.062 277.914 136.492 278.918 136.523 280.199V286.035C136.523 287.199 136.672 288.125 136.969 288.812V289H134.695ZM131.098 287.348C131.777 287.348 132.422 287.172 133.031 286.82C133.641 286.469 134.082 286.012 134.355 285.449V282.848H132.656C130 282.848 128.672 283.625 128.672 285.18C128.672 285.859 128.898 286.391 129.352 286.773C129.805 287.156 130.387 287.348 131.098 287.348ZM149.156 278.078H144.902V289H142.734V278.078H138.562V276.32H149.156V278.078ZM159.469 276.32H161.637V289H159.469V279.754L153.621 289H151.453V276.32H153.621V285.578L159.469 276.32ZM174.539 278.078H170.285V289H168.117V278.078H163.945V276.32H174.539V278.078ZM179.016 280.691H182.309C183.746 280.707 184.883 281.082 185.719 281.816C186.555 282.551 186.973 283.547 186.973 284.805C186.973 286.07 186.543 287.086 185.684 287.852C184.824 288.617 183.668 289 182.215 289H176.848V276.32H179.016V280.691ZM179.016 282.461V287.23H182.238C183.051 287.23 183.68 287.023 184.125 286.609C184.57 286.188 184.793 285.613 184.793 284.887C184.793 284.184 184.574 283.609 184.137 283.164C183.707 282.711 183.102 282.477 182.32 282.461H179.016ZM199.582 283.598H198V289H195.82V276.32H198V281.688H199.418L203.684 276.32H206.309L201.293 282.414L206.73 289H203.977L199.582 283.598ZM218.988 276.32V289H216.809V278.113H212.496L212.238 282.859C212.098 285.039 211.73 286.598 211.137 287.535C210.551 288.473 209.617 288.961 208.336 289H207.469V287.09L208.09 287.043C208.793 286.965 209.297 286.559 209.602 285.824C209.906 285.09 210.102 283.73 210.188 281.746L210.422 276.32H218.988ZM224.836 281.699H227.883C228.047 280.012 228.645 278.656 229.676 277.633C230.715 276.602 232.023 276.086 233.602 276.086C235.258 276.086 236.613 276.645 237.668 277.762C238.723 278.879 239.293 280.332 239.379 282.121L239.391 282.801C239.391 284.035 239.148 285.148 238.664 286.141C238.18 287.133 237.5 287.898 236.625 288.438C235.75 288.969 234.75 289.234 233.625 289.234C231.992 289.234 230.656 288.703 229.617 287.641C228.578 286.57 227.996 285.184 227.871 283.48H224.836V289H222.668V276.32H224.836V281.699ZM230.016 282.801C230.016 284.207 230.34 285.336 230.988 286.188C231.645 287.039 232.523 287.465 233.625 287.465C234.727 287.465 235.598 287.031 236.238 286.164C236.887 285.297 237.211 284.09 237.211 282.543C237.211 281.16 236.883 280.035 236.227 279.168C235.57 278.301 234.695 277.867 233.602 277.867C232.523 277.867 231.656 278.293 231 279.145C230.344 279.996 230.016 281.215 230.016 282.801ZM251.637 289H249.457V284.406C248.504 284.656 247.527 284.781 246.527 284.781C244.941 284.781 243.73 284.375 242.895 283.562C242.066 282.75 241.645 281.594 241.629 280.094V276.309H243.797V280.164C243.836 282.055 244.746 283 246.527 283C247.527 283 248.504 282.875 249.457 282.625V276.32H251.637V289ZM254.543 282.543C254.543 281.301 254.785 280.184 255.27 279.191C255.762 278.199 256.441 277.434 257.309 276.895C258.184 276.355 259.18 276.086 260.297 276.086C262.023 276.086 263.418 276.684 264.48 277.879C265.551 279.074 266.086 280.664 266.086 282.648V282.801C266.086 284.035 265.848 285.145 265.371 286.129C264.902 287.105 264.227 287.867 263.344 288.414C262.469 288.961 261.461 289.234 260.32 289.234C258.602 289.234 257.207 288.637 256.137 287.441C255.074 286.246 254.543 284.664 254.543 282.695V282.543ZM256.723 282.801C256.723 284.207 257.047 285.336 257.695 286.188C258.352 287.039 259.227 287.465 260.32 287.465C261.422 287.465 262.297 287.035 262.945 286.176C263.594 285.309 263.918 284.098 263.918 282.543C263.918 281.152 263.586 280.027 262.922 279.168C262.266 278.301 261.391 277.867 260.297 277.867C259.227 277.867 258.363 278.293 257.707 279.145C257.051 279.996 256.723 281.215 256.723 282.801ZM276.105 286.129L280.418 276.32H283.125V289H280.957V279.777L276.855 289H275.355L271.172 279.578V289H269.004V276.32H271.816L276.105 286.129ZM300.398 289C300.273 288.75 300.172 288.305 300.094 287.664C299.086 288.711 297.883 289.234 296.484 289.234C295.234 289.234 294.207 288.883 293.402 288.18C292.605 287.469 292.207 286.57 292.207 285.484C292.207 284.164 292.707 283.141 293.707 282.414C294.715 281.68 296.129 281.312 297.949 281.312H300.059V280.316C300.059 279.559 299.832 278.957 299.379 278.512C298.926 278.059 298.258 277.832 297.375 277.832C296.602 277.832 295.953 278.027 295.43 278.418C294.906 278.809 294.645 279.281 294.645 279.836H292.465C292.465 279.203 292.688 278.594 293.133 278.008C293.586 277.414 294.195 276.945 294.961 276.602C295.734 276.258 296.582 276.086 297.504 276.086C298.965 276.086 300.109 276.453 300.938 277.188C301.766 277.914 302.195 278.918 302.227 280.199V286.035C302.227 287.199 302.375 288.125 302.672 288.812V289H300.398ZM296.801 287.348C297.48 287.348 298.125 287.172 298.734 286.82C299.344 286.469 299.785 286.012 300.059 285.449V282.848H298.359C295.703 282.848 294.375 283.625 294.375 285.18C294.375 285.859 294.602 286.391 295.055 286.773C295.508 287.156 296.09 287.348 296.801 287.348ZM309.574 283.598H307.992V289H305.812V276.32H307.992V281.688H309.41L313.676 276.32H316.301L311.285 282.414L316.723 289H313.969L309.574 283.598ZM328.008 278.078H323.754V289H321.586V278.078H317.414V276.32H328.008V278.078ZM338.32 276.32H340.488V289H338.32V279.754L332.473 289H330.305V276.32H332.473V285.578L338.32 276.32ZM344.168 289V276.32H349.113C350.801 276.32 352.094 276.617 352.992 277.211C353.898 277.797 354.352 278.66 354.352 279.801C354.352 280.387 354.176 280.918 353.824 281.395C353.473 281.863 352.953 282.223 352.266 282.473C353.031 282.652 353.645 283.004 354.105 283.527C354.574 284.051 354.809 284.676 354.809 285.402C354.809 286.566 354.379 287.457 353.52 288.074C352.668 288.691 351.461 289 349.898 289H344.168ZM346.336 283.434V287.254H349.922C350.828 287.254 351.504 287.086 351.949 286.75C352.402 286.414 352.629 285.941 352.629 285.332C352.629 284.066 351.699 283.434 349.84 283.434H346.336ZM346.336 281.699H349.137C351.168 281.699 352.184 281.105 352.184 279.918C352.184 278.73 351.223 278.117 349.301 278.078H346.336V281.699ZM365.508 289C365.383 288.75 365.281 288.305 365.203 287.664C364.195 288.711 362.992 289.234 361.594 289.234C360.344 289.234 359.316 288.883 358.512 288.18C357.715 287.469 357.316 286.57 357.316 285.484C357.316 284.164 357.816 283.141 358.816 282.414C359.824 281.68 361.238 281.312 363.059 281.312H365.168V280.316C365.168 279.559 364.941 278.957 364.488 278.512C364.035 278.059 363.367 277.832 362.484 277.832C361.711 277.832 361.062 278.027 360.539 278.418C360.016 278.809 359.754 279.281 359.754 279.836H357.574C357.574 279.203 357.797 278.594 358.242 278.008C358.695 277.414 359.305 276.945 360.07 276.602C360.844 276.258 361.691 276.086 362.613 276.086C364.074 276.086 365.219 276.453 366.047 277.188C366.875 277.914 367.305 278.918 367.336 280.199V286.035C367.336 287.199 367.484 288.125 367.781 288.812V289H365.508ZM361.91 287.348C362.59 287.348 363.234 287.172 363.844 286.82C364.453 286.469 364.895 286.012 365.168 285.449V282.848H363.469C360.812 282.848 359.484 283.625 359.484 285.18C359.484 285.859 359.711 286.391 360.164 286.773C360.617 287.156 361.199 287.348 361.91 287.348ZM370.922 276.32H373.102V287.23H378.938V276.32H381.105V287.23H382.617L382.406 292.762H380.461V289H370.922V276.32ZM393.164 276.32H395.332V289H393.164V279.754L387.316 289H385.148V276.32H387.316V285.578L393.164 276.32ZM407.016 276.32H409.184V289H407.016V279.754L401.168 289H399V276.32H401.168V285.578L407.016 276.32Z" fill="#F1E8E8"/>
<circle cx="44.5" cy="156.5" r="2.5" fill="#FF5F00"/>
<circle cx="44.5" cy="196.5" r="2.5" fill="#FF5F00"/>
<circle cx="44.5" cy="239.5" r="2.5" fill="#FF5F00"/>
<circle cx="44.5" cy="280.5" r="2.5" fill="#FF5F00"/>
<circle cx="44.5" cy="156.5" r="5" stroke="#D5D0D0"/>
<circle cx="44.5" cy="196.5" r="5" stroke="#D5D0D0"/>
<circle cx="44.5" cy="239.5" r="5" stroke="#D5D0D0"/>
<circle cx="44.5" cy="280.5" r="5" stroke="#D5D0D0"/>
</svg>
